<?xml version="1.0" encoding="UTF-8"?>
<svg id="Layer_2" data-name="Layer 2" xmlns="http://www.w3.org/2000/svg" viewBox="0 0 383.08 110.69">
  <defs>
    <style>
      .cls-1 {
        fill: #1a1a1a;
      }
    </style>
  </defs>
  <g id="Logo_Variations" data-name="Logo Variations">
    <g id="B_and_W" data-name="B and W">
      <path class="cls-1" d="M129.75,55.65c0-1.87-.9-3.81-.9-3.81h-1.4c-.43,0-.7-.23-.7-.23l-1.36-2.45c-.78-.43-1.79,0-1.79,0-.12,1.63-.97,2.47-.97,2.47h-15.88s-2.96-.01-3.74.01-1.63.17-1.63.17c-.9.19-1.99,1.13-1.99,1.13h-9.5c-.74-1.13-3.34-1.3-3.34-1.3h-15.73s-.64-1.73-1.57-2.43c-1.13-.85-.72.59-.72.59,0,0,1.09,2.02.63,1.96-.46-.07-1.21.04-1.53-.02-.33-.07.49-1.09.1-2-.43-1-1.69-.98-2.47-.69-.78.28-.72,1.29-.77,2.13-.05.82-.18.43-.77.89-.85.66-1.46,1.01-2.18,1.01s-.97-.2-1.63-.98c-.65-.78-2.13-1.15-3.05.04-1.06,1.38-.17,2.04,1.14,3.54,1.31,1.5,1.13,2.04,1.32,2.82.2.78-.23,2.28-.36,3.19-.13.91-1.11,2.08-2.6,2.7-.84.35-1.53.31-3.04.1-.58-.08-1.74-.27-2.36-.76-.63-.48-.91-.7-1.18-.94s-.34.12-.24.46c.1.34.51,1.28,1.23,2.6s3.08,3.01,3.08,3.01c0,0,2.29,1.26,3.58,1.19,1.29-.06,1.51.03,3.06.81,1.55.77,1.58,2.58,1.58,2.58.64,1.06-.68,3.28-.68,3.28l-3.78,9.19-5.02,11.58c-.83,2.05.39,3.88,1.48,5.13,1.09,1.24,3.44,1.29,3.44,1.29,0,0,2.93.03,4.09,0s1.11.18,1.11.18c0,0-.67,2.2-.85,2.72s.23.65.23.65h14.58c1.4-.05,1.06-.1,1.66-.54.6-.44.21-1.48.21-1.48l-1.31-2.94,4.36-13.17,2.14-5.93c1.65-2.96,5.27-2.46,5.27-2.46h8.49c1.75,0,1.63,0,3.35-.54,1.71-.54,2.65-2.72,2.92-3.31.27-.58.66-1.99.51-3.15-.16-1.17-.04-2.3-.04-2.3-.04-1.13,1.44-1.91,1.44-1.91,2.06.08,3.66-2.8,3.66-2.8h14.75c1.48,0,1.87-.19,2.41-.82.54-.62,1.71-.66,2.22-.78.51-.12.86-1.71.86-1.71l-.04-3.15c.39-1.48.23-2.92.23-4.79ZM89.87,55.49c.2-.08,1.42-.14,1.42-.14h7.62s.43-.11.46.19c.03.3-.42.39-1.23.43h-4.52s-2.25-.01-2.58-.07l-.64-.08-.59-.08s-.13-.17.07-.25ZM89.87,57.43c.2-.08,1.42-.14,1.42-.14h7.62s.43-.11.46.19c.03.3-.42.39-1.23.43h-4.52s-2.25-.01-2.58-.07l-.64-.08-.59-.08s-.13-.17.07-.25ZM58.13,53.73s-.38-.31-.25-.5c.12-.19.5-.31.73-.13l1.69,1.3s.4.18.26.48c-.13.31-.33.64-.33.64,0,0-.08.23-.63-.29l-1.47-1.5ZM64.93,102.28h-7.47s-.97-.03-1.46-.36c-.49-.33-1.72-1.36-1.97-2.46-.25-1.1.33-2.39.33-2.39l1.48-3.31,1.67-3.77,1.58-3.67,2.64-6.03,1.6-3.76s.29-1.27.31-1.91c0,0,.31-2.44.79-2.48.48-.04,1.27.79,1.29,1.24.02.45.38,1.83-.25,3.25-.63,1.42-1.84,4.24-1.84,4.24l-1.34,3.28-2.23,5.22-3.01,7.1-.24.48s-.25.44.16.73c.41.29.9.62.9.62l3.78,2.81s.69.78,1.7.72c1.01-.06,2.95,0,2.95,0h7.43s.6-.05-.16.37h-4.09l-4.55.07ZM67.85,67.05c-.12-.28-.3-1.65-.16-1.44l2.17,3.33-2.37,2.35s-.29-.05-.07-.54.5-1.56.91-1.99c.41-.43-.36-1.43-.48-1.71ZM68.25,72.07c.36-.5.54-1.19,1.62-1.87s1.47-1.04,1.22-1.69l-1.73-2.52-.75-1.08s-.13-.38.09-.5c.22-.13.48-.08.63.08.15.17,1.22,1.38,1.22,1.38l.72.91s.63.81.64,1.2c.01.39,0,1.69,0,1.69,0,0-.19,1.03-.77,1.22s-1.4.88-1.57,1.26c-.17.39-.85,1.82-.85,1.82l-4.89,11.97s-.5,1.26-.72,1.33.43-1.83.43-1.83l1.33-3.92,1.94-5.32s1.08-3.63,1.44-4.13ZM73.49,67.39s-.05,1.89-.06,2.24c-.01.35-.3,0-.3,0,0,0-.1-1.21-.1-1.61s-.08-.82-.08-.82l-1.87-2.32c-.15-.19.05-.14.26-.14s.86.66.86.66c0,0,.49.77.96,1.26.47.49.34.73.34.73ZM73.71,72.69c.96,0,1.74.78,1.74,1.74s-.78,1.74-1.74,1.74-1.74-.78-1.74-1.74.78-1.74,1.74-1.74ZM69.4,95.21c0,.96-.78,1.74-1.74,1.74s-1.74-.78-1.74-1.74.78-1.74,1.74-1.74,1.74.78,1.74,1.74ZM76.25,105.57c-.18.19-.59.23-.8.24-.2.01-1.4,0-1.4,0,0,0-.3-.34-.8-.67s-1.53-.72-1.91-.76-1.05-.21-1.05-.21l.37-.14s1.79-.19,2.75-.08c.96.11,1.46.09,1.8.38.34.29,1.2,1.05,1.02,1.24ZM87.31,79.68l.53-1.33s1.15.55,1.8.8c.66.25,2.34.61,2.34.61l-4.68-.08ZM91.04,73.5c-.23,1.31.89,4.13.89,4.13-.38.14-1.29.17-2.4-.26-1.12-.43-1.81-1.76-2.09-3.86-.29-2.1,1.74-3.51,2.62-3.92s2.38,0,2.38,0c0,0-1.12,2.42-1.39,3.92ZM93.79,78.56l.51-.42s.41-.21-.04-.66-1.34-1.48-1.5-2.41-.14-1.51-.14-1.51c0,0,.2-2.16,1.38-3.08,1.18-.91,1.34-1.3,1.34-1.3,0,0,2.15-.18,3.31.47.81.45,1.74.77,2.27,2.29s.43,3.04-.12,4.02c-.82,1.45-1.56,2.15-2.68,2.38-1.12.23-4.32.21-4.32.21ZM104.18,69.47c-.28.36-.63.71-.97,1.64-.34.92-.18,1.52-.15,2.88.03,1.36-.28,2.43-.55,3-.28.57-1.18,1.73-1.9,2.24-.71.5-2.01.53-1.75.42.26-.11,1.82-1.3,1.82-1.3,0,0,.53-.5,1.17-1.42.63-.92.6-1.59.79-2.58.19-.99-.37-2.75-.37-2.75,0,0-.52-1.36-1.13-1.96s-.29-.65-.29-.65c0,0,2.87.02,3.16,0,.29-.02.45.13.18.49ZM106.11,66.39c-1.12.84-2.93.65-2.93.65h-11.56s-.91.04-1.14.04-.77-.03-1.02-.08-.71-.35-1.09-.41c-.38-.06-.6-.12-1.58.06-.98.17-1.87.73-3.16,2.18-1.29,1.45-.63,4.05-.62,4.29.01.25.46.97.82,1.22s1.09,1.09,1.39,1.55c.3.46.26,1.67.26,1.99s-.8,1.36-1.04,1.6-1.19.63-1.44.65c-.24.02-.78.13-1.18.39-.4.26-.61.3-.61.3v-1.55s-.02-.59,0-.76c.02-.17.3.36.86.69.57.33,1.19.07,1.64-.06.45-.13.8-.54,1.08-1.06.28-.52.16-1.04.13-1.47-.04-.43-.4-.76-.84-1.24s-1.86-.49-1.86-.49c0,0-.58.08-.88-.16-.3-.24-.31-.64-.48-1.11s.21-1.46.21-1.46l.42-1.44s.67-2.26.77-3.01c.1-.76-.22-1.64-.51-2.11-.3-.48-.57-.94-1.23-1.54s-2.22-.57-2.22-.57h-4.36s-2.62.06-2.62.06c0,0-2.84-.03-3.76.08-.92.1-1.12,1.07-1.21,1.6-.1.54.49,2.26.74,2.66.25.4.03.97.03.97,0,0-.76,1.4-.97,1.89-.2.49-.37.03-.37.03,0,0-.96-1.65-1.22-2.08-.26-.43-1.54-1.59-1.54-1.59-.39-.55-2.37-1.08-3.11-1.15s-1.5.2-1.83.29c-.33.09-1.76.88-1.76.88,0,0-.72.23-1.58-.22-.86-.44-.19-.58-.19-.58l.68-.14s1.48-.28,2.38-.58c.9-.3,1.48-.82,1.76-1.06.28-.24.82-1.04.82-1.04,0,0,.28-.74.48-.96s.98-.14.98-.14h44.75c1.12,0,1.12,1.36,1.12,1.71s-.3,1.45-1.42,2.29ZM125.18,64.16c-.14.56-.61.7-1.02.7h-11.93s-1.09.08-1.18-.76.79-.68.88-.68l10.97-.08,1.64.04s.77.22.64.78ZM122.84,59.11l-18.67-.05s-1.75-.06-2.58.37c-.83.43-1.69.52-1.69.52l-2.66.04s-7.24.02-8.04-.02-1.69-.48-1.89-.7c-.2-.22-.92-.73-.92-.73,0,0-2.48.06-3.74.01-1.26-.05-1.39.05-2.66.72-1.27.67-2.43-.05-3.21-.44-.78-.39-1.27-1.96-1.33-2.23-.06-.27,0-1.21.06-1.69s-.1-.18-.23.01c-.14.2-.73,2.1-.73,2.1,0,0-.43,1.59-.62,1.53-.18-.06-.02-1.16-.02-1.16,0,0,.26-1.92.32-2.56.06-.64-.48.1-.48.1l-.51,1.78s-.63,2.11-.7,1.97c-.07-.14.06-1.7.11-1.91.05-.21.31-1.57.31-1.8s.06-.62-.16-.56c-.22.05-.59,1.22-.65,1.54-.06.32-.35,1.26-.48,1.12-.14-.14-.01-.96.02-1.39.04-.43.09-1.11-.17-1.13-.26-.02-.41.64-.41.64l-.86,3.07s-.25.75-.3.36c-.05-.39.51-3.56.57-3.84.06-.27-.26-.62-.54-.1-.28.52-.68,1.34-.68,1.34v-1.57h-.9s-1.15-.07-2.4.24c-1.26.31-2.11,1.34-2.7,2.03-.59.69-.73,2.01-.73,2.01,0,0,.04,1.33,0,1.99s-1.13.53-1.13.53c-1.03-.14-.66-.61-.63-2.36s1.78-3.99,2.63-4.86c.84-.88,2.92-.63,2.92-.63h20.04c2.01-.04,2.26.87,2.33,1.42.07.56-.38.51-.38.51h-1.77l-5.55-.05c-.54-.54-1.96-.54-1.96-.54-.56-.11-1.74.1-2.16.72-.43.62-.25,1.56.36,1.98.61.43,1.38.7,1.78.49.41-.21,1.24-.18,1.24-.18.84.28.97.16.97.16,0,0,6.58-.02,6.93-.02s.8.33,1.1.65c.29.33.56.28.56.28l2.67.03,6.88-.11c1.34-.1,1.2-1.67,1.2-1.67v-2.46c.13-1.28,1.84-1.23,1.84-1.23h22.35l2.53.09c.84.53.67,2.04.67,2.04l-4,.04-8.33-.02-7.13.04-3.24-.02-2.17.04s-.67.05-.68.37c0,.32.5.38.5.38l.67.05,4.46.02,4.3-.02,8.23-.03,6.9.03c1.45.3.09.65.09.65l-.74.03-7.22.03-9.22-.02-3.85.05-2.75-.02s-1.37,0-1.36.69c.02.69.99.6.99.6l.49.02,9.1-.03,7.39.03,3.69.02,3.5.05c1.21.19,0,.64,0,.64h-4.75ZM127.83,63.91c-.23,0-.39-.55-.4-.89-.02-.33.11-.71.3-.72.19,0,.55.33.53.72,0,0-.19.89-.42.89Z"/>
      <g>
        <rect class="cls-1" x="366.06" y="59.77" width="4.44" height=".55" transform="translate(428.32 -308.23) rotate(90)"/>
        <path class="cls-1" d="M377.87,62.07v-4.04c-.72,0-.48-.24-.73-.24h-7.15c-.16,0-.66.11-.73.24h-.5v4.04h.5c.07.13.57.24.73.24h7.15c.24,0-.04-.24.73-.24Z"/>
        <path class="cls-1" d="M378.14,58.12v3.81s2.13.08,3.25-.48,1.69-1.39,1.69-1.39c0,0-.37-1.03-2.23-1.69-1.11-.39-2.65-.26-2.65-.26h-.06Z"/>
      </g>
      <path class="cls-1" d="M64.11,19.52c-.3.85-1.03,1.7-2.18,2.54-1.59,1.16-2.71,2.08-3.37,2.78-.9,1.62-6.57,14.05-17.08,37.45-10.55,23.3-16.09,35.62-16.54,36.81-.34,1.43-1.03,3.74-2.07,6.92-.84,2.07-2.41,3.59-4.69,4.55-.25.08-.61.12-1.08.12-1.96,0-4.65-.64-8.09-1.92-3.63-1.52-6.18-3.11-7.67-4.78-.73-.72-.93-1.95-.6-3.7.13-.72.61-1.51,1.44-2.38.82-.87,1.37-1.59,1.63-2.14,4.98-11.33,9.48-21.42,13.52-30.3,9.63-21.33,16.11-35.1,19.49-41.43l-17.9,4.52c-2.44,1.55-3.99,2.24-4.66,2.09-1.56-.31-4.14-1.72-7.75-4.23C2.89,23.9.81,21.91.24,20.44c-.25-.69-.31-1.42-.16-2.2.54-2.85,2.26-4.85,5.16-6,1.08-.46,2.52-.77,4.31-.92,2.57-.23,4.13-.38,4.69-.46l33.82-5.87c.55-.08,1.54-.5,2.98-1.26,1.09-.53,2.04-.73,2.86-.57,1.48.31,3.66,2.78,6.55,7.42,2.9,4.65,4.12,7.63,3.66,8.94Z"/>
      <g>
        <path class="cls-1" d="M96.54,19.99c-.27.64-.69,1.21-1.27,1.71-.58.5-1.11.74-1.59.74-.15,0-.27-.02-.37-.05-.45-.18-1.58-.27-3.38-.27l-7.03,20.18s.03.23.07.79c.04.56-.02,1.05-.17,1.47-.33.94-1.21,1.44-2.64,1.51-.75.03-2.01-.26-3.77-.87-1.93-.65-2.88-1.25-2.84-1.81,0-.23.29-.71.85-1.45.57-.74.91-1.31,1.05-1.71l6.04-18.16h-1.88c-.7,0-1.37-.59-2.02-1.78-.65-1.2-.86-2.15-.63-2.87.17-.54.54-1.03,1.11-1.46.57-.43,1.11-.65,1.64-.65h4.02l1.64-4.94c-.32-.74-.34-1.53-.05-2.39.26-.78.76-1.27,1.5-1.46.37-.07.85-.11,1.46-.11,1.4,0,2.96.22,4.69.64,1.72.43,2.79.87,3.2,1.31.19.22.23.48.12.78-.13.37-.63.93-1.49,1.66-.86.74-1.36,1.25-1.49,1.54l-1.03,2.95h1.79c.37,0,.92.65,1.65,1.95.72,1.29.99,2.21.8,2.74Z"/>
        <path class="cls-1" d="M115.99,43.93c-.57.94-1.2,1.54-1.91,1.8-.29.1-.75.15-1.38.15-1.2,0-2.55-.17-4.07-.51-1.52-.34-2.4-.67-2.62-1-.08-.16-.07-.36.02-.59.1-.26.45-.75,1.06-1.47.32-.26.66-.55,1.03-.86.37-.31.66-.72.85-1.21,5.36-13.36,8.02-20.35,7.76-20.45-.48-.18-2.27,1.12-5.33,3.88-3.24,2.9-5.18,5.21-5.84,6.93l-4.28,11.18c.37.53.3,1.21-.21,2.06-.6,1.01-1.42,1.69-2.48,2.05-.17.06-.39.1-.67.1-.95,0-2.26-.2-3.94-.61-1.68-.41-2.58-.71-2.68-.9-.2-.52-.01-1.13.56-1.81.07-.1.3-.27.69-.52.39-.25.63-.48.71-.72l13.72-37.38c.11-.3.1-.7-.02-1.19-.13-.49-.07-.91.17-1.25.52-.8,1.3-1.32,2.35-1.55.67-.15,2.03.06,4.07.63,2.21.61,3.31,1.24,3.29,1.88,0,.42-.31,1.04-.89,1.87-.58.83-1.1,1.84-1.56,3.04l-3.93,10.27c3.07-2.56,5.58-3.85,7.52-3.85,1.27,0,2.74.43,4.41,1.28,1.67.85,2.51,1.62,2.52,2.3.1,2.29-2.8,10.6-8.47,24.4.03.79-.13,1.47-.48,2.06Z"/>
      </g>
      <polygon class="cls-1" points="367.48 57.88 363.26 57.83 365.66 58.17 362.69 58.25 364.6 58.38 361.32 58.47 364.71 58.6 362.15 58.66 366.12 58.92 362.84 58.9 363.6 59.03 363.04 59.25 364.17 59.29 361.21 59.57 364.15 59.81 363 59.9 365.17 60.33 362.43 60.34 365.82 60.73 361.23 60.97 365.01 60.99 364.12 61.18 366.3 61.36 362.04 61.64 367.38 61.98 362.75 61.88 367.81 62.25 367.73 57.84 367.48 57.88"/>
      <g>
        <path class="cls-1" d="M202.22,54.81h4.41l-3.72-.76,2.48-1.11h-3.87l2.08-.69-5.34.56.22-1.11s-2.31.56-3.42,1.25c-.1.06-.21.11-.32.16-1.67-1.8-2.63-2.88-2.86-3.24l6.51-32.68c.17-.87.67-1.99,1.5-3.34.68-1.03,1.01-1.87.98-2.51-.11-1.43-1.74-2.79-4.88-4.07-3.14-1.28-5.61-1.8-7.42-1.56-1.71.16-3.42.36-5.15.6-2.31.4-3.81,1.32-4.49,2.75-.29.64-.35,1.48-.19,2.51.16,1.04.22,1.63.19,1.79l-6.45,33.08c-6.69,1.41-12.85,2.79-18.49,4.12l5.52-28.86c.14-.71.77-2.06,1.91-4.05,1.14-1.99,1.73-3.34,1.79-4.06.16-2.07-1.76-3.74-5.74-5.02-3.09-.96-6.11-1.44-9.07-1.44-.72,0-1.17.04-1.34.12-2.83,1.44-4.39,2.55-4.7,3.35-1.3,3.11-2.07,5.29-2.31,6.56l-5.95,31.79c-.2,2.16,1.31,2.12,2.84,2.36,1.53.24.94.93,1.65,1.44.71.5.79.46,4.66.79,2.65.22,2.36,1.82,3.45,1.9,1.26.09,3.26,1.06,3.65,2.26h48.47l.14-.68s.17-.83,1.39-1.04c1.23-.21.8-.76.8-.76h2.26l-1.21-.42Z"/>
        <path class="cls-1" d="M200.55,65.19l4.13-.76h-4.53l1.41-.41h-2.32s.66-.55-.51-.76c-1.17-.21-1.01-1.04-1.01-1.04l.14-.68h-49.86c-3.38.64-7.13.87-8.4,2.06-1.27,1.19-4.74.65-6,2.16-1.26,1.51-1.39,1.8-3.02,2.1l-4.57,24.43c-.12.62-.43,1.7-.96,3.23-.27,1-.36,1.92-.28,2.77.1,1.15,2.85,2.67,8.25,4.55,5.4,1.88,8.76,2.59,10.1,2.13.67-.23,1.2-.77,1.6-1.61.46-1.15.96-2.34,1.51-3.57,0-.38-.19-.94-.56-1.67-.37-.73-.5-1.36-.4-1.9l4.5-23.54c1.52-.54,4.58-1.32,9.19-2.33,4.61-1.01,7.68-1.59,9.21-1.75l-4.58,23.46c-.05.23-.51.81-1.4,1.73s-1.3,1.66-1.25,2.19c-.11,1.38-.2,2.42-.25,3.11.63,2,3.06,3.99,7.28,5.99,3.92,1.91,7.25,2.87,9.99,2.87.78,0,1.38-.08,1.8-.23,2.04-.84,3.2-3.72,3.48-8.63-.17-3.07-.28-4.5-.32-4.27l5.82-29.23c.47,0,2.54.08,3.3.69.86.69,3,1.24,3,1.24l.22-1.1,5.26.55-1.85-.69h3.98l-2.1-1.11Z"/>
        <path class="cls-1" d="M300.4,57.04l-3.71-.85,2.38-.24-1.88-.24.91-.52-1.74.26,1.02-.6-2.11.41-.7-.45-1.8,1.1.65-.93s-1.56,1.41-2.57,1.13c-.16-.04-.29-.03-.4.02l7.92-36.07c.14-.63.79-1.59,1.94-2.86,1.16-1.27,1.8-2.22,1.94-2.86.46-2.47-2.26-4.62-8.16-6.45-5.24-1.6-8.74-2.19-10.51-1.8-2.79.72-4.43,1.84-4.91,3.35-.09.4.05.88.41,1.43.36.56.53,1.24.52,2.03l-8.64,40.1,3.04,4.72h16.09v-.02s10.3-.65,10.3-.65Z"/>
        <path class="cls-1" d="M309.74,82.63c-4.02-3.44-6.61-5.09-7.74-4.94-2.14.78-3.63,1.47-4.48,2.09l-13.42,5.22,4.81-21.9c1.09-.25,2.06,1.05,2.06,1.05l-.29-.91,1.37,1.03.88-.48,1.95.32-.78-.56,1.64.19-.7-.49,1.97-.32-2.29-.15,4.04-1-9.51-.22v-.02s-16.83,0-16.83,0l-4.16,4.01-5.66,26.28c-.15.69-.44,1.66-.86,2.89-.88,2.62-1.02,4.54-.42,5.77.84,1.54,3.85,3.18,9.02,4.95,5.17,1.76,8.68,2.34,10.53,1.72.58-.15,1.28-.77,2.11-1.84.82-1.07,1.53-1.72,2.13-1.96l18.98-7.14c.52-.23,1.3-.27,2.32-.12,1.02.16,1.87.12,2.55-.12,2.21-.77,4.2-2.96,5.96-6.59.56-1.08-1.17-3.34-5.19-6.78Z"/>
        <path class="cls-1" d="M267.24,18.73c0-1.51-1.51-4.03-4.55-7.58-3.04-3.55-5.45-5.64-7.23-6.28-.81-.32-3.19.56-7.14,2.63-4.28,2.15-7.61,3.23-10.01,3.23-1.84,0-4.07-.58-6.7-1.73-2.64-1.16-4.43-1.77-5.37-1.85-.86-.08-2.34.4-4.42,1.44-2.09,1.04-3.19,1.83-3.3,2.39l-8.99,44.31c.76,1.05.6,1.85.55,2.43h41.97c-.2-.31-.43-.63-.68-.97l-.25.25-.07-.67c-.11-.15-.23-.29-.35-.44l-.69.69-.09-1.64c-.09-.11-.18-.21-.28-.32l-.5.9-.66-1.49-.36.98-.08-1.43h-.83l-.2-1.79c-2.35-2.33-4.04-3.44-5.09-3.31-4.74,1.49-8.65,2.94-11.71,4.35l3.98-19.22c3.32-2.61,8.13-4.9,14.42-6.88,2.65-.87,5.47-1.62,8.47-2.26.17-.08.44,0,.79.24.35.24.96.36,1.83.36,1.03,0,2.55-.87,4.55-2.62,2-1.74,3-2.98,3-3.69Z"/>
        <path class="cls-1" d="M357.93,57.25l-2.25-.45,1.12-.3-3.14-.3s1.03.1,1.4-.2-1.45-.25-2-.25-1.42.05-1.75-.25-.57.64-1.28.89c-.71.25-1.71-.34-1.71-.34l-.72-1.04,8.09-34.98c.15-.63.8-1.59,1.98-2.86,1.17-1.27,1.83-2.22,1.98-2.86.49-2.47-2.2-4.62-8.08-6.45-5.22-1.6-8.72-2.19-10.49-1.8-2.8.72-4.45,1.84-4.95,3.35-.09.4.04.88.39,1.43.35.56.52,1.24.5,2.03l-9.82,43.22,2.08.62-.32.17.81.06-.32.17,1.1.3-.26.11.31.17h16.4l10.01.14-1.4-.45,2.34-.15Z"/>
        <g>
          <path class="cls-1" d="M366.33,82.63c-3.98-3.44-6.55-5.09-7.68-4.94-2.15.78-3.65,1.47-4.5,2.09l-13.48,5.22,5.04-21.79c.17-.18.4-.4.59-.48.34-.14,1.3-.05,1.3-.05l-.64-.16c.62-.19,1.32-.06,1.51-.01l-.61-.14,2.5-.14-1.2-.03,1.85-.26-1-.05,1.88-.34h-5.82,0s-15.61,0-15.61,0l-.41.11.38.04-1.55.56.28.17-1.78.51.54.09-1.76.45.47.13-1.23.31-6.34,27.92c-.16.69-.46,1.66-.89,2.89-.91,2.62-1.07,4.54-.49,5.77.82,1.54,3.81,3.18,8.97,4.95,5.15,1.76,8.65,2.34,10.51,1.72.58-.15,1.29-.77,2.13-1.84.84-1.07,1.55-1.72,2.16-1.96l19.06-7.14c.52-.23,1.3-.27,2.32-.12,1.02.16,1.87.12,2.56-.12,2.22-.77,4.23-2.96,6.03-6.59.57-1.08-1.13-3.34-5.11-6.78Z"/>
          <path class="cls-1" d="M348.48,62.52h.06s-.02,0-.06,0Z"/>
        </g>
        <path class="cls-1" d="M249.21,83.67c-3.73-3.37-6.15-5.05-7.25-5.05-.94,0-3.64.95-8.09,2.85-4.45,1.9-7.99,3.54-10.63,4.93l2.53-12.2c8.48-4.43,14.28-6.92,17.4-7.46,2-.16,3.4-.23,4.19-.23.59-.17,1.23-.47,1.9-.89l-.55.06.97-.49-.57.18,1.22-.75-.63.08,1.26-.65-.63.06,1.22-.65-.2-.06.48-.03-.31-.09h.59s.02-.03.03-.05l-.26-.05.37-.07s.07-.08.1-.12l-.3-.14h.43s.03-.05.04-.06l-.49-.11.59-.03s.04-.05.05-.07l-.32-.04.4-.06s.03-.05.05-.08l-.1-.1.17-.02-.12-.11h.2s.02-.05.03-.07l-.45-.05.5-.06s.02-.04.03-.05l-.33-.02.37-.06s.03-.07.04-.1l-.11-.1.14.02s.03-.08.05-.11h-42.61c-.42.51-.94,1.08-1.54,1.7-.62.64-1.09,1.08-1.44,1.3l-7.04,34.69c-.2,1,1.91,2.53,6.34,4.61.64.31,4.55,2.03,11.72,5.17,5.69-4.06,11.71-7.39,18.05-10.01,2.67-1.15,5.3-2.08,7.87-2.77.17-.08.34-.12.49-.12.39,0,.86.17,1.42.52.55.35.96.48,1.21.4.93-.31,2.12-1.21,3.58-2.71,1.46-1.5,2.44-2.91,2.96-4.22.35-.93-1.33-3.07-5.05-6.43Z"/>
      </g>
    </g>
  </g>
</svg>